<svg width="76" height="77" viewBox="0 0 76 77" fill="none" xmlns="http://www.w3.org/2000/svg">
<circle cx="37.9492" cy="38.1562" r="37.9492" fill="#F56135"/>
<path d="M42.7629 50.4492V52.7147H36.9888V56.3035H41.4136V58.5289H36.9888V64.4433H34.2109V50.4492H42.7629Z" fill="white"/>
<path d="M42.7629 15.1719V17.4374H36.9888V21.0261H41.4136V23.2516H36.9888V29.166H34.2109V15.1719H42.7629Z" fill="white"/>
<path d="M26.8358 27.4056L16.4624 21.731C16.0378 21.4859 15.497 21.551 15.1575 21.9211C14.7363 22.4328 14.8613 23.1968 15.3802 23.4964C15.3802 23.4964 22.8194 28.0431 24.9623 29.3432C25.2925 29.5338 25.365 29.9531 25.2016 30.2361C25.0109 30.5663 24.6389 30.666 24.3086 30.4754C22.1113 29.2696 14.4542 25.1004 14.4542 25.1004C13.8881 24.7736 13.1639 25.0474 12.9785 25.6952C12.8278 26.1743 13.0418 26.6752 13.4663 26.9204L23.0012 32.7398C23.3315 32.9305 23.4039 33.3497 23.2405 33.6328C23.0499 33.963 22.6778 34.0627 22.3475 33.872C20.1502 32.6663 12.4931 28.4971 12.4931 28.4971C11.927 28.1702 11.2028 28.444 11.0175 29.0918C10.8667 29.5709 11.0807 30.0719 11.5053 30.317L21.6063 36.4633L22.9272 37.226C24.2953 38.0158 25.8886 38.3067 27.1809 37.9206L29.887 37.1556L57.4535 55.3356C59.1173 56.4849 61.4441 55.9412 62.4518 54.1957L62.6425 53.8655C63.6503 52.1199 63.0049 49.8603 61.1305 48.9669L31.6029 34.1835L30.9124 31.4575C30.5734 30.1924 29.5992 28.9381 28.184 28.121L26.8358 27.4056Z" fill="white"/>
<path d="M51.827 23.7904C56.5162 21.0831 61.8912 21.6421 63.8324 25.0044C65.7736 28.3666 63.5701 33.301 58.881 36.0083C54.9023 38.3054 50.3911 38.258 47.96 36.1256L19.5234 54.8798C17.853 56.0336 15.517 55.488 14.5054 53.7359L14.314 53.4044C13.3024 51.6522 13.9505 49.3838 15.8324 48.4867L46.2922 33.2369C45.6811 29.9907 47.8483 26.0875 51.827 23.7904Z" fill="white"/>
</svg>
