<svg width="145" height="137" viewBox="0 0 145 137" fill="none" xmlns="http://www.w3.org/2000/svg">
<path d="M-0.00301823 44.1308C-0.00301884 37.1494 4.08634 31.5078 9.09226 31.5078C14.0982 31.5078 18.1875 37.1494 18.1875 44.1308C18.1875 50.0544 15.2263 55.0613 11.2779 56.4012L13.8867 100.245C14.0982 102.854 11.983 105.111 9.37427 105.111L8.88076 105.111C6.27204 105.111 4.15685 102.925 4.36836 100.245L6.97709 56.4012C2.95825 54.9908 -0.00301771 50.0544 -0.00301823 44.1308Z" fill="#F56135"/>
<path d="M118.913 43.6477C119.833 42.2371 120.983 41.1331 122.363 40.3358C123.743 39.5078 125.276 39.0938 126.963 39.0938V47.4198H124.801C122.838 47.4198 121.366 47.8491 120.385 48.7077C119.404 49.5357 118.913 51.0077 118.913 53.1237V65.0378H111.047V39.3697H118.913V43.6477Z" fill="#F56135"/>
<path d="M95.984 57.6791L101.55 39.3711H109.922L100.814 65.0391H91.108L82 39.3711H90.418L95.984 57.6791Z" fill="#F56135"/>
<path d="M53.8281 52.1599C53.8281 49.5226 54.3188 47.2072 55.3001 45.2139C56.3121 43.2206 57.6768 41.6872 59.3941 40.6139C61.1115 39.5406 63.0281 39.0039 65.1441 39.0039C66.9535 39.0039 68.5328 39.3719 69.8821 40.1079C71.2621 40.8439 72.3201 41.8099 73.0561 43.0059V39.3719H80.9221V65.0399H73.0561V61.4059C72.2895 62.6019 71.2161 63.5679 69.8361 64.3039C68.4868 65.0399 66.9075 65.4079 65.0981 65.4079C63.0128 65.4079 61.1115 64.8712 59.3941 63.7979C57.6768 62.6939 56.3121 61.1452 55.3001 59.1519C54.3188 57.1279 53.8281 54.7972 53.8281 52.1599ZM73.0561 52.2059C73.0561 50.2432 72.5041 48.6946 71.4001 47.5599C70.3268 46.4252 69.0081 45.8579 67.4441 45.8579C65.8801 45.8579 64.5461 46.4252 63.4421 47.5599C62.3688 48.6639 61.8321 50.1972 61.8321 52.1599C61.8321 54.1226 62.3688 55.6866 63.4421 56.8519C64.5461 57.9866 65.8801 58.5539 67.4441 58.5539C69.0081 58.5539 70.3268 57.9866 71.4001 56.8519C72.5041 55.7172 73.0561 54.1686 73.0561 52.2059Z" fill="#F56135"/>
<path d="M52.2098 31V65.04H44.3438V31H52.2098Z" fill="#F56135"/>
<path d="M43.2095 32.7461V39.0481H30.0535V45.8561H39.8975V51.9741H30.0535V65.0381H22.1875V32.7461H43.2095Z" fill="#F56135"/>
<path d="M118.952 83.8626C119.872 82.4519 121.022 81.3479 122.402 80.5506C123.782 79.7226 125.315 79.3086 127.002 79.3086V87.6346H124.84C122.877 87.6346 121.405 88.0639 120.424 88.9226C119.443 89.7506 118.952 91.2226 118.952 93.3386V105.253H111.086V79.5846H118.952V83.8626Z" fill="#F56135"/>
<path d="M82.0391 92.3709C82.0391 89.7336 82.5297 87.4183 83.5111 85.4249C84.5231 83.4316 85.8877 81.8983 87.6051 80.8249C89.3224 79.7516 91.2391 79.2149 93.3551 79.2149C95.0417 79.2149 96.5751 79.5676 97.9551 80.2729C99.3657 80.9783 100.47 81.9289 101.267 83.1249V71.2109H109.133V105.251H101.267V101.571C100.531 102.798 99.4731 103.779 98.0931 104.515C96.7437 105.251 95.1644 105.619 93.3551 105.619C91.2391 105.619 89.3224 105.082 87.6051 104.009C85.8877 102.905 84.5231 101.356 83.5111 99.3629C82.5297 97.3389 82.0391 95.0083 82.0391 92.3709ZM101.267 92.4169C101.267 90.4543 100.715 88.9056 99.6111 87.7709C98.5377 86.6363 97.2191 86.0689 95.6551 86.0689C94.0911 86.0689 92.7571 86.6363 91.6531 87.7709C90.5797 88.8749 90.0431 90.4083 90.0431 92.3709C90.0431 94.3336 90.5797 95.8976 91.6531 97.0629C92.7571 98.1976 94.0911 98.7649 95.6551 98.7649C97.2191 98.7649 98.5377 98.1976 99.6111 97.0629C100.715 95.9283 101.267 94.3796 101.267 92.4169Z" fill="#F56135"/>
<path d="M70.5619 79.3086C73.5672 79.3086 75.9592 80.2899 77.7379 82.2526C79.5472 84.1846 80.4519 86.8526 80.4519 90.2566V105.253H72.6319V91.3146C72.6319 89.5973 72.1872 88.2633 71.2979 87.3126C70.4085 86.3619 69.2125 85.8866 67.7099 85.8866C66.2072 85.8866 65.0112 86.3619 64.1219 87.3126C63.2325 88.2633 62.7879 89.5973 62.7879 91.3146V105.253H54.9219V79.5846H62.7879V82.9886C63.5852 81.8539 64.6585 80.9646 66.0079 80.3206C67.3572 79.6459 68.8752 79.3086 70.5619 79.3086Z" fill="#F56135"/>
<path d="M48.3326 76.9163C46.9526 76.9163 45.818 76.5176 44.9286 75.7203C44.07 74.8923 43.6406 73.8803 43.6406 72.6843C43.6406 71.4576 44.07 70.4456 44.9286 69.6483C45.818 68.8203 46.9526 68.4062 48.3326 68.4062C49.682 68.4062 50.786 68.8203 51.6446 69.6483C52.534 70.4456 52.9786 71.4576 52.9786 72.6843C52.9786 73.8803 52.534 74.8923 51.6446 75.7203C50.786 76.5176 49.682 76.9163 48.3326 76.9163ZM52.2426 79.5843V105.252H44.3766V79.5843H52.2426Z" fill="#F56135"/>
<path d="M43.2095 72.9609V79.2629H30.0535V86.0709H39.8975V92.1889H30.0535V105.253H22.1875V72.9609H43.2095Z" fill="#F56135"/>
<path d="M144.423 48.2222L144.074 33.074C144.074 32.4457 143.655 31.8872 143.026 31.7476C142.188 31.608 141.419 32.2363 141.419 33.0042C141.419 33.0042 141.139 44.1734 141.07 47.3846C141.07 47.8732 140.65 48.2222 140.231 48.2222C139.742 48.2222 139.393 47.8732 139.393 47.3846C139.323 44.1734 139.043 33.0042 139.043 33.0042C139.043 32.1665 138.275 31.5382 137.436 31.7476C136.807 31.8872 136.388 32.4457 136.388 33.074L136.039 47.3846C136.039 47.8732 135.619 48.2222 135.2 48.2222C134.711 48.2222 134.362 47.8732 134.362 47.3846C134.292 44.1734 134.012 33.0042 134.012 33.0042C134.012 32.1665 133.244 31.5382 132.405 31.7476C131.776 31.8872 131.357 32.4457 131.357 33.074L131.008 48.2222V50.1769C131.008 52.2013 131.707 54.1559 132.964 55.3426L135.55 57.8557L133.034 100.098C132.824 102.681 134.921 104.914 137.506 104.914H137.995C140.58 104.914 142.677 102.75 142.467 100.098L139.952 57.8557L142.537 55.3426C143.725 54.1559 144.493 52.2711 144.493 50.1769L144.423 48.2222Z" fill="#F56135"/>
</svg>
